Coordinates
version=1
nRows=16
nColumns=40
inDegrees=yes

Units are S.I. units (second, meters, Newtons, ...)
Angles are in degrees.

endheader
time	pelvis_tilt	pelvis_list	pelvis_rotation	pelvis_tx	pelvis_ty	pelvis_tz	hip_flexion_r	hip_adduction_r	hip_rotation_r	knee_angle_r	knee_angle_r_beta	ankle_angle_r	subtalar_angle_r	mtp_angle_r	hip_flexion_l	hip_adduction_l	hip_rotation_l	knee_angle_l	knee_angle_l_beta	ankle_angle_l	subtalar_angle_l	mtp_angle_l	lumbar_extension	lumbar_bending	lumbar_rotation	arm_flex_r	arm_add_r	arm_rot_r	elbow_flex_r	pro_sup_r	wrist_flex_r	wrist_dev_r	arm_flex_l	arm_add_l	arm_rot_l	elbow_flex_l	pro_sup_l	wrist_flex_l	wrist_dev_l
     18.16250000	     -2.54944684	     -6.17075337	     -0.15938979	      1.06776927	      0.91968007	      0.48809366	     21.40875344	      2.16077705	    -14.60931327	     21.25364156	     21.25364156	      4.70508881	     -2.21807312	     -4.60778950	      8.57863549	    -13.65931763	     -5.33627278	     49.23236427	     49.23236427	     10.29714453	    -17.65849193	     -4.58118474	    -12.36699992	      8.15600342	      2.46309213	     -9.58235908	    -12.33435994	     -1.04646277	     26.38732448	     46.01191861	      0.00000000	      0.00000000	      7.94748848	    -13.04753086	     -9.98028549	    106.18129536	     47.82178973	      0.00000000	      0.00000000
     18.17400000	     -2.62614861	     -6.12525980	      0.08644052	      1.06726331	      0.92085109	      0.49012274	     20.73763965	      2.11467920	    -15.33960305	     20.93571673	     20.93571673	      5.22517490	     -1.12744428	     -5.14600086	     11.09097635	    -13.78326832	     -4.13460626	     53.37842979	     53.37842979	     10.66817291	    -17.85823707	      1.76969791	    -12.28145004	      8.11463960	      2.76857261	     -8.07593491	    -12.45763159	      0.05401772	     26.74436241	     45.94187812	      0.00000000	      0.00000000	      7.16324199	    -12.51911012	     -9.32930675	    103.84541631	     47.80920565	      0.00000000	      0.00000000
     18.18550000	     -2.68244913	     -6.19009719	      0.30504259	      1.06655836	      0.92191673	      0.49227063	     20.02785271	      2.29521397	    -15.76617269	     20.51533027	     20.51533027	      5.63592436	     -0.56442895	     -5.36776174	     13.52731861	    -14.10068026	     -3.18105771	     57.06787721	     57.06787721	     10.52205663	    -18.04027776	      5.74891819	    -12.29961915	      8.16017100	      3.00798605	     -6.52327567	    -12.63967599	      0.85168043	     27.47084884	     45.88148515	      0.00000000	      0.00000000	      6.12502681	    -12.12077322	     -8.59497951	    102.01107777	     47.79779237	      0.00000000	      0.00000000
     18.19700000	     -2.60798846	     -6.27317935	      0.44799631	      1.06583086	      0.92303023	      0.49449824	     19.22653611	      2.55789660	    -15.96083463	     20.17075426	     20.17075426	      6.06507346	     -0.26386102	     -5.47571076	     15.60298227	    -14.53353192	     -2.57122425	     60.06340834	     60.06340834	      9.36136808	    -18.46209251	      6.06590152	    -12.54421234	      8.15922734	      3.37490226	     -4.73386128	    -12.74587668	      0.87050291	     28.14718601	     45.86884709	      0.00000000	      0.00000000	      4.95310530	    -11.48523657	     -7.99486435	    100.93190013	     47.73825085	      0.00000000	      0.00000000
     18.20850000	     -2.75235707	     -6.27045341	      0.72938120	      1.06482680	      0.92390098	      0.49632668	     18.58066354	      2.62823047	    -16.55836802	     19.66679430	     19.66679430	      6.37142668	      0.53984448	     -5.66593331	     18.19762809	    -14.60725892	     -1.57598870	     63.12551405	     63.12551405	     10.21832503	    -18.42485642	     11.01451744	    -12.38777359	      8.15263916	      3.73000560	     -3.34214406	    -13.03986183	      1.61437926	     28.91333686	     45.81668992	      0.00000000	      0.00000000	      4.38851135	    -11.34897104	     -6.85073582	     97.33469206	     47.68748243	      0.00000000	      0.00000000
     18.22000000	     -2.74609259	     -6.28972737	      0.93868434	      1.06383679	      0.92486587	      0.49825370	     17.82204821	      2.78947561	    -16.88742547	     19.22617277	     19.22617277	      6.68960604	      1.04533689	     -5.74486824	     20.35693031	    -14.83094668	     -0.95882795	     65.40185389	     65.40185389	      9.85594596	    -18.62077526	     11.58176661	    -12.50062602	      8.11713041	      3.79892427	     -1.44514310	    -13.22867816	      1.66407611	     29.70493625	     45.80245445	      0.00000000	      0.00000000	      3.36551017	    -11.04485058	     -6.35744701	     94.70773389	     47.62268466	      0.00000000	      0.00000000
     18.23150000	     -2.76537644	     -6.37460886	      1.17460903	      1.06272899	      0.92567536	      0.50014359	     17.12310665	      3.03658210	    -17.15407052	     18.81227510	     18.81227510	      6.96712632	      1.33702706	     -5.77005720	     22.54262512	    -15.09432716	     -0.34096543	     67.28961219	     67.28961219	      9.66087395	    -18.73190377	     11.73853832	    -12.58599041	      8.11495259	      3.98076279	      0.39247516	    -13.43447647	      1.62237842	     30.44709575	     45.79220402	      0.00000000	      0.00000000	      2.21418912	    -10.65070520	     -5.78318946	     92.71697353	     47.54900020	      0.00000000	      0.00000000
     18.24300000	     -2.73933159	     -6.34032769	      1.38791585	      1.06156804	      0.92666888	      0.50176812	     16.32884172	      3.12774472	    -17.52622370	     18.32297018	     18.32297018	      7.23791583	      1.95233770	     -5.84349854	     24.60723948	    -15.14149951	      0.17596956	     68.75242389	     68.75242389	     10.09019667	    -18.77716847	     13.16811396	    -12.69210321	      8.05013360	      4.57485960	      2.11339282	    -13.72822596	      1.70128616	     31.10970331	     45.78227575	      0.00000000	      0.00000000	      2.19347422	    -10.15283348	     -4.96065895	     87.88823699	     47.44560784	      0.00000000	      0.00000000
     18.25450000	     -2.71696429	     -6.37888603	      1.65800446	      1.06033094	      0.92753916	      0.50336597	     15.53732221	      3.33613832	    -17.77136977	     17.78731380	     17.78731380	      7.46150085	      2.25855797	     -5.80744247	     26.61264928	    -15.25684067	      0.67479919	     69.71785823	     69.71785823	     10.24740268	    -18.81255440	     13.33316897	    -12.81579793	      8.01193543	      4.47923711	      4.18450909	    -13.88081568	      1.54087489	     32.16164352	     45.76925271	      0.00000000	      0.00000000	      1.13245818	    -10.09549818	     -4.33007060	     85.04833943	     47.36272404	      0.00000000	      0.00000000
     18.26600000	     -2.66401871	     -6.38070187	      1.91760513	      1.05910066	      0.92847611	      0.50472000	     14.70400873	      3.48861444	    -18.07795761	     17.23978485	     17.23978485	      7.69117829	      2.66597214	     -5.79671068	     28.47024958	    -15.29461206	      1.05466037	     70.21046029	     70.21046029	     10.47342940	    -18.81586977	     13.53853949	    -12.96326883	      7.95953856	      4.63824362	      6.18421053	    -14.10796698	      1.38942292	     33.14841540	     45.75762608	      0.00000000	      0.00000000	      0.52680477	     -9.75212787	     -3.80509144	     81.27774158	     47.27601053	      0.00000000	      0.00000000
     18.27750000	     -2.65502819	     -6.42251241	      2.19685284	      1.05778078	      0.92929362	      0.50589295	     13.92847875	      3.66383337	    -18.42815512	     16.69743440	     16.69743440	      7.90635763	      3.15341579	     -5.78782899	     30.29069708	    -15.31530987	      1.42320309	     70.26003287	     70.26003287	     10.75373363	    -18.81086805	     13.80837379	    -13.05576907	      7.96592334	      5.20649522	      7.86842349	    -14.50070012	      1.10857762	     34.29919977	     45.74616810	      0.00000000	      0.00000000	      0.49068744	     -9.16925547	     -3.14622676	     76.43983141	     47.18232354	      0.00000000	      0.00000000
     18.28900000	     -2.63523321	     -6.47581987	      2.51496405	      1.05643103	      0.93004881	      0.50693396	     13.11538819	      3.88133131	    -18.71266749	     16.08122729	     16.08122729	      8.08926555	      3.43124090	     -5.71505656	     31.99780501	    -15.31713309	      1.73700611	     69.86600786	     69.86600786	     10.87433877	    -18.78937611	     13.78532840	    -13.20598566	      7.96249523	      4.85151951	     10.14250812	    -14.52470270	      0.88588307	     35.61653738	     45.72462327	      0.00000000	      0.00000000	     -0.77219769	     -9.21954005	     -2.68763049	     73.74772666	     47.10548598	      0.00000000	      0.00000000
     18.30050000	     -2.57919419	     -6.50666142	      2.82828400	      1.05508791	      0.93088175	      0.50778110	     12.22686838	      4.06769419	    -19.04218692	     15.39935867	     15.39935867	      8.26737119	      3.91607968	     -5.67581077	     33.47803994	    -15.26156166	      1.96718673	     68.97829627	     68.97829627	     10.93993826	    -18.76124858	     13.85613357	    -13.33062723	      7.92339319	      4.66403820	     12.38743749	    -14.58743454	      0.72634767	     36.97786722	     45.69710615	      0.00000000	      0.00000000	     -1.51602577	     -9.06232772	     -2.43522904	     69.82152403	     47.02911503	      0.00000000	      0.00000000
     18.31200000	     -2.59531351	     -6.48221296	      3.07187234	      1.05367835	      0.93157229	      0.50838770	     11.47810976	      4.15335667	    -19.40176674	     14.84160143	     14.84160143	      8.44199252	      4.49370505	     -5.68206196	     34.84905736	    -15.12771549	      2.04662124	     67.68174538	     67.68174538	     10.94886731	    -18.77864046	     14.00795999	    -13.36326670	      7.91586477	      5.48312968	     13.86378719	    -15.24909834	      0.54004786	     38.73101478	     45.65165071	      0.00000000	      0.00000000	     -0.96438448	     -8.18983476	     -2.32917366	     63.72865594	     46.95786545	      0.00000000	      0.00000000
     18.32350000	     -2.58537443	     -6.49374989	      3.34963671	      1.05227012	      0.93215749	      0.50889071	     10.66665447	      4.32063009	    -19.62172991	     14.19219187	     14.19219187	      8.60897366	      4.81528185	     -5.61548832	     36.05249804	    -14.98826960	      2.14122589	     66.00328638	     66.00328638	     10.87082287	    -18.75968571	     14.17655089	    -13.48981228	      7.88241010	      5.07554446	     16.21641780	    -15.19408972	      0.35026935	     40.40698269	     45.61330450	      0.00000000	      0.00000000	     -2.20779553	     -8.25557061	     -2.04668706	     60.96116791	     46.89194401	      0.00000000	      0.00000000
     18.33500000	     -2.58555574	     -6.49403531	      3.58692103	      1.05087891	      0.93269321	      0.50926246	      9.86615920	      4.46739845	    -19.86140028	     13.54581209	     13.54581209	      8.76917273	      5.21905519	     -5.59296719	     37.05247632	    -14.82965035	      2.15698562	     63.91418282	     63.91418282	     10.70125890	    -18.68686292	     14.38379655	    -13.56131649	      7.86106839	      4.78052137	     18.47206544	    -15.16838903	      0.27447115	     42.14549927	     45.56582422	      0.00000000	      0.00000000	     -3.11942511	     -8.16551137	     -1.94498711	     57.50498552	     46.83303906	      0.00000000	      0.00000000
